<svg width="218" height="247" viewBox="0 0 218 247" fill="none" xmlns="http://www.w3.org/2000/svg">
<rect width="217.941" height="247" fill="white"/>
<path d="M58.1168 33.5291C58.1168 37.2327 55.1145 40.235 51.411 40.235C47.7074 40.235 44.7051 37.2327 44.7051 33.5291C44.7051 29.8256 47.7074 26.8232 51.411 26.8232C55.1145 26.8232 58.1168 29.8256 58.1168 33.5291ZM48.0456 33.5291C48.0456 35.3877 49.5523 36.8944 51.411 36.8944C53.2696 36.8944 54.7763 35.3877 54.7763 33.5291C54.7763 31.6705 53.2696 30.1638 51.411 30.1638C49.5523 30.1638 48.0456 31.6705 48.0456 33.5291Z" fill="#5700FF" fill-opacity="0.15"/>
<path d="M182.559 192.432C183.696 192.624 184.485 193.72 184.018 194.774C183.483 195.984 182.665 197.059 181.621 197.902C180.031 199.187 178.026 199.847 175.983 199.757C173.941 199.666 172.002 198.833 170.531 197.413C169.06 195.993 168.159 194.084 167.997 192.046C167.835 190.008 168.424 187.981 169.652 186.347C170.88 184.713 172.663 183.583 174.665 183.172C176.668 182.76 178.752 183.094 180.525 184.112C181.689 184.78 182.667 185.713 183.387 186.822C184.014 187.79 183.408 188.996 182.316 189.366C181.223 189.735 180.06 189.084 179.215 188.3C178.983 188.084 178.726 187.894 178.447 187.734C177.557 187.223 176.511 187.055 175.506 187.262C174.501 187.468 173.606 188.035 172.99 188.855C172.374 189.676 172.078 190.693 172.16 191.716C172.241 192.738 172.693 193.696 173.431 194.409C174.169 195.121 175.143 195.54 176.168 195.585C177.193 195.63 178.199 195.299 178.997 194.654C179.247 194.452 179.471 194.224 179.666 193.974C180.377 193.066 181.422 192.24 182.559 192.432Z" fill="#5700FF" fill-opacity="0.15"/>
<path d="M116.382 226.706C116.382 230.409 113.38 233.412 109.677 233.412C105.973 233.412 102.971 230.409 102.971 226.706C102.971 223.002 105.973 220 109.677 220C113.38 220 116.382 223.002 116.382 226.706ZM106.311 226.706C106.311 228.564 107.818 230.071 109.677 230.071C111.535 230.071 113.042 228.564 113.042 226.706C113.042 224.847 111.535 223.341 109.677 223.341C107.818 223.341 106.311 224.847 106.311 226.706Z" fill="#5700FF" fill-opacity="0.15"/>
<circle cx="25.1481" cy="62.029" r="3.91176" fill="#5700FF" fill-opacity="0.15"/>
<circle cx="191.882" cy="107.912" r="3.91176" fill="#5700FF" fill-opacity="0.15"/>
<rect x="108.559" y="29.5879" width="3.35294" height="5.58824" rx="1.67647" transform="rotate(90 108.559 29.5879)" fill="#5700FF" fill-opacity="0.15"/>
<rect x="111.912" y="32.9404" width="3.35294" height="5.58824" rx="1.67647" transform="rotate(-90 111.912 32.9404)" fill="#5700FF" fill-opacity="0.15"/>
<rect x="111.912" y="29.5879" width="3.35294" height="5.58824" rx="1.67647" transform="rotate(-180 111.912 29.5879)" fill="#5700FF" fill-opacity="0.15"/>
<rect x="108.559" y="34.0586" width="3.35294" height="5.58824" rx="1.67647" fill="#5700FF" fill-opacity="0.15"/>
<rect x="8.94141" y="148.646" width="3.35294" height="5.58824" rx="1.67647" fill="#5700FF" fill-opacity="0.15"/>
<rect x="16.9961" y="150.516" width="3.35294" height="5.58824" rx="1.67647" transform="rotate(45 16.9961 150.516)" fill="#5700FF" fill-opacity="0.15"/>
<rect x="20.1172" y="157.588" width="3.35294" height="5.58824" rx="1.67647" transform="rotate(90 20.1172 157.588)" fill="#5700FF" fill-opacity="0.15"/>
<rect x="18.6172" y="164.893" width="3.35294" height="5.58824" rx="1.67647" transform="rotate(135 18.6172 164.893)" fill="#5700FF" fill-opacity="0.15"/>
<rect x="4.7207" y="167.332" width="3.35294" height="5.58824" rx="1.67647" transform="rotate(-137.814 4.7207 167.332)" fill="#5700FF" fill-opacity="0.15"/>
<rect y="160.941" width="3.35294" height="5.58824" rx="1.67647" transform="rotate(-90 0 160.941)" fill="#5700FF" fill-opacity="0.15"/>
<rect x="1.86914" y="152.887" width="3.35294" height="5.58824" rx="1.67647" transform="rotate(-45 1.86914 152.887)" fill="#5700FF" fill-opacity="0.15"/>
<rect x="8.19141" y="162.426" width="3.35294" height="5.58824" rx="1.67647" fill="#5700FF" fill-opacity="0.15"/>
<rect x="30.7363" y="202.255" width="5.58824" height="5.58824" transform="rotate(45 30.7363 202.255)" fill="#5700FF" fill-opacity="0.15"/>
<path d="M93.7483 134.723C90.7467 131.045 88.9415 126.568 86.8437 122.309C84.746 118.051 82.1795 113.803 78.204 111.209C73.6774 108.255 67.9826 108.786 64.0981 111.647C61.2558 113.741 59.3827 117.083 59.6457 121.221C59.8991 125.21 61.7597 128.899 63.6278 132.433C69.7508 144.016 76.519 155.546 86.2457 164.324C90.2003 167.893 95.7991 171.102 100.596 168.786C103.535 167.367 105.21 164.271 106.746 161.391C127.167 123.098 156.618 89.6586 192.026 64.5652C186.277 64.0458 180.677 66.3141 175.4 68.6545C159.105 75.8822 143.234 84.2838 129.036 95.064C114.839 105.844 102.318 119.092 93.7483 134.723Z" fill="#5700FF"/>
<path d="M167.478 92.7193C164.263 95.6976 161.121 98.7539 158.052 101.883C161.34 109.361 163.167 117.623 163.167 126.303C163.167 159.864 135.864 187.167 102.303 187.167C68.7422 187.167 41.4385 159.864 41.4385 126.303C41.4385 92.7422 68.7422 65.4386 102.303 65.4386C116.685 65.4386 129.917 70.4529 140.344 78.8245C143.998 76.6077 147.827 74.4362 151.863 72.2928C145.662 66.5924 138.603 62.0473 130.838 58.763C121.796 54.939 112.196 53 102.303 53C92.4099 53 82.8094 54.939 73.7682 58.763C65.0386 62.4554 57.1999 67.7399 50.47 74.4699C43.74 81.1999 38.4554 89.0385 34.7631 97.7681C30.939 106.809 29 116.41 29 126.303C29 136.196 30.939 145.797 34.763 154.838C38.4554 163.567 43.7399 171.406 50.4699 178.136C57.1999 184.866 65.0385 190.15 73.7681 193.843C82.8093 197.667 92.4098 199.606 102.303 199.606C112.196 199.606 121.796 197.667 130.838 193.843C139.567 190.15 147.406 184.866 154.136 178.136C160.866 171.406 166.15 163.567 169.843 154.838C173.667 145.796 175.606 136.196 175.606 126.303C175.606 116.41 173.667 106.809 169.843 97.7682C169.116 96.05 168.327 94.3668 167.478 92.7193Z" fill="#5700FF" fill-opacity="0.15"/>
</svg>
