<svg width="11" height="823" viewBox="0 0 11 823" fill="none" xmlns="http://www.w3.org/2000/svg">
<line x1="0.353553" y1="0.353478" x2="10.3536" y2="10.3535" stroke="#5700FF"/>
<line x1="0.353553" y1="14.3535" x2="10.3536" y2="24.3535" stroke="#5700FF"/>
<line x1="0.353553" y1="28.3535" x2="10.3536" y2="38.3535" stroke="#5700FF"/>
<line x1="0.353553" y1="42.3535" x2="10.3536" y2="52.3535" stroke="#5700FF"/>
<line x1="0.353553" y1="56.3535" x2="10.3536" y2="66.3535" stroke="#5700FF"/>
<line x1="0.353553" y1="70.3535" x2="10.3536" y2="80.3535" stroke="#5700FF"/>
<line x1="0.353553" y1="84.3535" x2="10.3536" y2="94.3535" stroke="#5700FF"/>
<line x1="0.353553" y1="98.3535" x2="10.3536" y2="108.353" stroke="#5700FF"/>
<line x1="0.353553" y1="112.353" x2="10.3536" y2="122.353" stroke="#5700FF"/>
<line x1="0.353553" y1="126.353" x2="10.3536" y2="136.353" stroke="#5700FF"/>
<line x1="0.353553" y1="140.353" x2="10.3536" y2="150.353" stroke="#5700FF"/>
<line x1="0.353553" y1="154.353" x2="10.3536" y2="164.353" stroke="#5700FF"/>
<line x1="0.353553" y1="168.353" x2="10.3536" y2="178.353" stroke="#5700FF"/>
<line x1="0.353553" y1="182.353" x2="10.3536" y2="192.353" stroke="#5700FF"/>
<line x1="0.353553" y1="196.353" x2="10.3536" y2="206.353" stroke="#5700FF"/>
<line x1="0.353553" y1="210.353" x2="10.3536" y2="220.353" stroke="#5700FF"/>
<line x1="0.353553" y1="224.353" x2="10.3536" y2="234.353" stroke="#5700FF"/>
<line x1="0.353553" y1="238.353" x2="10.3536" y2="248.353" stroke="#5700FF"/>
<line x1="0.353553" y1="252.353" x2="10.3536" y2="262.353" stroke="#5700FF"/>
<line x1="0.353553" y1="266.353" x2="10.3536" y2="276.353" stroke="#5700FF"/>
<line x1="0.353553" y1="280.353" x2="10.3536" y2="290.353" stroke="#5700FF"/>
<line x1="0.353553" y1="294.353" x2="10.3536" y2="304.353" stroke="#5700FF"/>
<line x1="0.353553" y1="308.353" x2="10.3536" y2="318.353" stroke="#5700FF"/>
<line x1="0.353553" y1="322.353" x2="10.3536" y2="332.353" stroke="#5700FF"/>
<line x1="0.353553" y1="336.353" x2="10.3536" y2="346.353" stroke="#5700FF"/>
<line x1="0.353553" y1="350.353" x2="10.3536" y2="360.353" stroke="#5700FF"/>
<line x1="0.353553" y1="364.353" x2="10.3536" y2="374.353" stroke="#5700FF"/>
<line x1="0.353553" y1="378.353" x2="10.3536" y2="388.353" stroke="#5700FF"/>
<line x1="0.353553" y1="392.353" x2="10.3536" y2="402.353" stroke="#5700FF"/>
<line x1="0.353553" y1="406.353" x2="10.3536" y2="416.353" stroke="#5700FF"/>
<line x1="0.353553" y1="420.353" x2="10.3536" y2="430.353" stroke="#5700FF"/>
<line x1="0.353553" y1="434.353" x2="10.3536" y2="444.353" stroke="#5700FF"/>
<line x1="0.353553" y1="448.353" x2="10.3536" y2="458.353" stroke="#5700FF"/>
<line x1="0.353553" y1="462.353" x2="10.3536" y2="472.353" stroke="#5700FF"/>
<line x1="0.353553" y1="476.353" x2="10.3536" y2="486.353" stroke="#5700FF"/>
<line x1="0.353553" y1="490.353" x2="10.3536" y2="500.353" stroke="#5700FF"/>
<line x1="0.353553" y1="504.353" x2="10.3536" y2="514.353" stroke="#5700FF"/>
<line x1="0.353553" y1="518.353" x2="10.3536" y2="528.353" stroke="#5700FF"/>
<line x1="0.353553" y1="532.353" x2="10.3536" y2="542.353" stroke="#5700FF"/>
<line x1="0.353553" y1="546.353" x2="10.3536" y2="556.353" stroke="#5700FF"/>
<line x1="0.353553" y1="560.353" x2="10.3536" y2="570.353" stroke="#5700FF"/>
<line x1="0.353553" y1="574.353" x2="10.3536" y2="584.353" stroke="#5700FF"/>
<line x1="0.353553" y1="588.353" x2="10.3536" y2="598.353" stroke="#5700FF"/>
<line x1="0.353553" y1="602.353" x2="10.3536" y2="612.353" stroke="#5700FF"/>
<line x1="0.353553" y1="616.353" x2="10.3536" y2="626.353" stroke="#5700FF"/>
<line x1="0.353553" y1="630.353" x2="10.3536" y2="640.353" stroke="#5700FF"/>
<line x1="0.353553" y1="644.353" x2="10.3536" y2="654.353" stroke="#5700FF"/>
<line x1="0.353553" y1="658.353" x2="10.3536" y2="668.353" stroke="#5700FF"/>
<line x1="0.353553" y1="672.353" x2="10.3536" y2="682.353" stroke="#5700FF"/>
<line x1="0.353553" y1="686.353" x2="10.3536" y2="696.353" stroke="#5700FF"/>
<line x1="0.353553" y1="700.353" x2="10.3536" y2="710.353" stroke="#5700FF"/>
<line x1="0.353553" y1="714.353" x2="10.3536" y2="724.353" stroke="#5700FF"/>
<line x1="0.353553" y1="728.353" x2="10.3536" y2="738.353" stroke="#5700FF"/>
<line x1="0.353553" y1="742.353" x2="10.3536" y2="752.353" stroke="#5700FF"/>
<line x1="0.353553" y1="756.353" x2="10.3536" y2="766.353" stroke="#5700FF"/>
<line x1="0.353553" y1="770.353" x2="10.3536" y2="780.353" stroke="#5700FF"/>
<line x1="0.353553" y1="784.353" x2="10.3536" y2="794.353" stroke="#5700FF"/>
<line x1="0.353553" y1="798.353" x2="10.3536" y2="808.353" stroke="#5700FF"/>
<line x1="0.353553" y1="812.353" x2="10.3536" y2="822.353" stroke="#5700FF"/>
</svg>
