<svg width="218" height="247" viewBox="0 0 218 247" fill="none" xmlns="http://www.w3.org/2000/svg">
<rect width="217.941" height="247" fill="white"/>
<path d="M34.3825 101.706C34.3825 105.409 31.3801 108.412 27.6766 108.412C23.973 108.412 20.9707 105.409 20.9707 101.706C20.9707 98.0023 23.973 95 27.6766 95C31.3801 95 34.3825 98.0023 34.3825 101.706ZM24.3113 101.706C24.3113 103.564 25.818 105.071 27.6766 105.071C29.5352 105.071 31.0419 103.564 31.0419 101.706C31.0419 99.8473 29.5352 98.3406 27.6766 98.3406C25.818 98.3406 24.3113 99.8473 24.3113 101.706Z" fill="#5700FF" fill-opacity="0.15"/>
<path d="M182.559 163.432C183.696 163.624 184.485 164.72 184.018 165.774C183.483 166.984 182.665 168.059 181.621 168.902C180.031 170.187 178.026 170.847 175.983 170.757C173.941 170.666 172.002 169.833 170.531 168.413C169.06 166.993 168.159 165.084 167.997 163.046C167.835 161.008 168.424 158.981 169.652 157.347C170.88 155.713 172.663 154.583 174.665 154.172C176.668 153.76 178.752 154.094 180.525 155.112C181.689 155.78 182.667 156.713 183.387 157.822C184.014 158.79 183.408 159.996 182.316 160.366C181.223 160.735 180.06 160.084 179.215 159.3C178.983 159.084 178.726 158.894 178.447 158.734C177.557 158.223 176.511 158.055 175.506 158.262C174.501 158.468 173.606 159.035 172.99 159.855C172.374 160.676 172.078 161.693 172.16 162.716C172.241 163.738 172.693 164.696 173.431 165.409C174.169 166.121 175.143 166.54 176.168 166.585C177.193 166.63 178.199 166.299 178.997 165.654C179.247 165.452 179.471 165.224 179.666 164.974C180.377 164.066 181.422 163.24 182.559 163.432Z" fill="#5700FF" fill-opacity="0.15"/>
<path d="M40.3825 162.706C40.3825 166.409 37.3801 169.412 33.6766 169.412C29.973 169.412 26.9707 166.409 26.9707 162.706C26.9707 159.002 29.973 156 33.6766 156C37.3801 156 40.3825 159.002 40.3825 162.706ZM30.3113 162.706C30.3113 164.564 31.818 166.071 33.6766 166.071C35.5352 166.071 37.0419 164.564 37.0419 162.706C37.0419 160.847 35.5352 159.341 33.6766 159.341C31.818 159.341 30.3113 160.847 30.3113 162.706Z" fill="#5700FF" fill-opacity="0.15"/>
<circle cx="59.8825" cy="56.9118" r="3.91176" fill="#5700FF" fill-opacity="0.15"/>
<circle cx="175.882" cy="80.9118" r="3.91176" fill="#5700FF" fill-opacity="0.15"/>
<rect x="110.559" y="42.5879" width="3.35294" height="5.58824" rx="1.67647" transform="rotate(90 110.559 42.5879)" fill="#5700FF" fill-opacity="0.15"/>
<rect x="113.912" y="45.9404" width="3.35294" height="5.58824" rx="1.67647" transform="rotate(-90 113.912 45.9404)" fill="#5700FF" fill-opacity="0.15"/>
<rect x="113.912" y="42.5879" width="3.35294" height="5.58824" rx="1.67647" transform="rotate(-180 113.912 42.5879)" fill="#5700FF" fill-opacity="0.15"/>
<rect x="110.559" y="47.0586" width="3.35294" height="5.58824" rx="1.67647" fill="#5700FF" fill-opacity="0.15"/>
<rect x="134.859" y="194.39" width="1.83333" height="3.05555" rx="0.916665" fill="#5700FF" fill-opacity="0.15"/>
<rect x="139.264" y="195.411" width="1.83333" height="3.05555" rx="0.916665" transform="rotate(45 139.264 195.411)" fill="#5700FF" fill-opacity="0.15"/>
<rect x="140.971" y="199.277" width="1.83333" height="3.05555" rx="0.916665" transform="rotate(90 140.971 199.277)" fill="#5700FF" fill-opacity="0.15"/>
<rect x="140.15" y="203.272" width="1.83333" height="3.05555" rx="0.916665" transform="rotate(135 140.15 203.272)" fill="#5700FF" fill-opacity="0.15"/>
<rect x="132.551" y="204.605" width="1.83333" height="3.05555" rx="0.916665" transform="rotate(-137.814 132.551 204.605)" fill="#5700FF" fill-opacity="0.15"/>
<rect x="129.971" y="201.111" width="1.83333" height="3.05555" rx="0.916665" transform="rotate(-90 129.971 201.111)" fill="#5700FF" fill-opacity="0.15"/>
<rect x="130.994" y="196.707" width="1.83333" height="3.05555" rx="0.916665" transform="rotate(-45 130.994 196.707)" fill="#5700FF" fill-opacity="0.15"/>
<rect x="134.449" y="201.923" width="1.83333" height="3.05555" rx="0.916665" fill="#5700FF" fill-opacity="0.15"/>
<rect x="75.9219" y="192" width="5.58824" height="5.58824" transform="rotate(45 75.9219 192)" fill="#5700FF" fill-opacity="0.15"/>
<path d="M108.5 66C75.0867 66 48 93.0867 48 126.5C48 159.913 75.0867 187 108.5 187C141.913 187 169 159.913 169 126.5C169 93.0867 141.913 66 108.5 66ZM108.5 177.309C80.4404 177.309 57.6929 154.561 57.6929 126.5C57.6929 98.4404 80.4404 75.6929 108.5 75.6929C136.561 75.6929 159.307 98.4404 159.307 126.5C159.307 154.561 136.561 177.309 108.5 177.309Z" fill="#5700FF" fill-opacity="0.15"/>
<path d="M140.657 100.166L140.652 100.181C140.407 101.165 139.818 102.026 138.992 102.611C129.161 109.602 120.157 117.748 112.193 126.805C119.654 134.966 127.974 142.344 136.986 148.75C137.813 149.334 138.403 150.196 138.647 151.179L138.652 151.192C139.265 153.66 136.867 155.808 134.481 154.925C124.931 151.386 115.764 146.292 107.337 139.927C106.254 139.109 103.672 137.053 102.442 136C98.9267 140.262 95.1191 145.395 91.787 150.06C89.1508 153.75 87.668 155.299 84.1092 155.892C78.9238 156.757 76.5498 150.065 79.3717 145.63C83.9622 138.414 88.77 132.113 93.3695 126.819C88.175 121.089 82.622 114.02 77.356 105.745C74.5327 101.31 77.3977 94.6168 82.6428 94.9705C86.4488 95.2271 88.8476 98.2227 90.7547 101.495C94.0912 107.219 97.7937 112.731 101.826 117.986C103.961 116.03 107.577 112.776 109.344 111.441C117.771 105.072 126.936 99.9776 136.485 96.4357C138.869 95.5506 141.27 97.6986 140.657 100.166Z" fill="#F04438"/>
</svg>
