<svg width="142" height="85" viewBox="0 0 142 85" fill="none" xmlns="http://www.w3.org/2000/svg">
<rect y="47.4663" width="136" height="40" rx="20" transform="rotate(-20.4272 0 47.4663)" fill="#00CC8D"/>
<path d="M21.3729 50.1523C21.4363 49.3002 22.4703 48.9151 23.0758 49.5181L26.868 53.2951C27.115 53.5412 27.4725 53.6408 27.8112 53.558L33.0103 52.2868C33.8404 52.0838 34.5262 52.9482 34.1397 53.7104L31.7194 58.4842C31.5617 58.7952 31.5774 59.1659 31.7609 59.4624L34.5765 64.0142C35.026 64.741 34.4159 65.6603 33.5716 65.5283L28.2835 64.7016C27.939 64.6478 27.5913 64.7773 27.366 65.0434L23.907 69.1278C23.3547 69.7799 22.2919 69.4837 22.1565 68.6399L21.3086 63.3552C21.2534 63.0109 21.0228 62.7203 20.7001 62.5882L15.7467 60.5606C14.9558 60.2369 14.9091 59.1345 15.6697 58.7451L20.4338 56.3056C20.7442 56.1467 20.9493 55.8376 20.9752 55.4898L21.3729 50.1523Z" fill="#F6FF49"/>
<path d="M43.8636 41.7759C43.9271 40.9237 44.961 40.5386 45.5665 41.1416L49.3587 44.9187C49.6058 45.1648 49.9632 45.2644 50.3019 45.1815L55.501 43.9103C56.3311 43.7074 57.0169 44.5717 56.6304 45.3339L54.2101 50.1077C54.0524 50.4187 54.0682 50.7894 54.2516 51.086L57.0672 55.6378C57.5167 56.3645 56.9066 57.2838 56.0623 57.1518L50.7743 56.3252C50.4297 56.2713 50.082 56.4008 49.8567 56.6669L46.3977 60.7513C45.8455 61.4034 44.7826 61.1072 44.6472 60.2634L43.7994 54.9788C43.7441 54.6345 43.5135 54.3438 43.1908 54.2117L38.2374 52.1842C37.4466 51.8604 37.3998 50.7581 38.1605 50.3686L42.9245 47.9292C43.2349 47.7702 43.4401 47.4611 43.466 47.1134L43.8636 41.7759Z" fill="#F6FF49"/>
<path d="M66.3543 33.3994C66.4178 32.5472 67.4518 32.1621 68.0572 32.7652L71.8494 36.5422C72.0965 36.7883 72.4539 36.8879 72.7926 36.8051L77.9917 35.5339C78.8218 35.3309 79.5076 36.1953 79.1212 36.9575L76.7008 41.7312C76.5432 42.0422 76.5589 42.4129 76.7423 42.7095L79.5579 47.2613C80.0075 47.9881 79.3973 48.9074 78.553 48.7754L73.265 47.9487C72.9205 47.8948 72.5728 48.0243 72.3474 48.2904L68.8884 52.3748C68.3362 53.0269 67.2733 52.7307 67.1379 51.887L66.2901 46.6023C66.2348 46.258 66.0042 45.9673 65.6815 45.8352L60.7281 43.8077C59.9373 43.484 59.8906 42.3816 60.6512 41.9921L65.4152 39.5527C65.7256 39.3938 65.9308 39.0846 65.9567 38.7369L66.3543 33.3994Z" fill="#F6FF49"/>
<path d="M88.845 25.0232C88.9085 24.171 89.9425 23.7859 90.5479 24.389L94.3401 28.166C94.5872 28.4121 94.9446 28.5117 95.2833 28.4289L100.482 27.1576C101.313 26.9547 101.998 27.819 101.612 28.5812L99.1916 33.355C99.0339 33.666 99.0496 34.0367 99.233 34.3333L102.049 38.8851C102.498 39.6118 101.888 40.5311 101.044 40.3992L95.7557 39.5725C95.4112 39.5186 95.0635 39.6481 94.8381 39.9142L91.3792 43.9986C90.8269 44.6507 89.764 44.3545 89.6287 43.5108L88.7808 38.2261C88.7256 37.8818 88.495 37.5911 88.1722 37.459L83.2189 35.4315C82.428 35.1078 82.3813 34.0054 83.1419 33.6159L87.9059 31.1765C88.2163 31.0175 88.4215 30.7084 88.4474 30.3607L88.845 25.0232Z" fill="#F6FF49"/>
<path d="M111.336 16.6467C111.4 15.7945 112.434 15.4094 113.039 16.0125L116.831 19.7895C117.078 20.0356 117.436 20.1352 117.775 20.0524L122.974 18.7812C123.804 18.5782 124.49 19.4426 124.103 20.2048L121.683 24.9785C121.525 25.2896 121.541 25.6602 121.724 25.9568L124.54 30.5086C124.989 31.2354 124.379 32.1547 123.535 32.0227L118.247 31.196C117.902 31.1421 117.555 31.2716 117.329 31.5377L113.87 35.6221C113.318 36.2743 112.255 35.978 112.12 35.1343L111.272 29.8496C111.217 29.5053 110.986 29.2146 110.663 29.0825L105.71 27.055C104.919 26.7313 104.872 25.6289 105.633 25.2394L110.397 22.8C110.708 22.6411 110.913 22.3319 110.939 21.9842L111.336 16.6467Z" fill="#F6FF49"/>
</svg>
