<svg width="374" height="267" viewBox="0 0 374 267" fill="none" xmlns="http://www.w3.org/2000/svg">
<g clip-path="url(#clip0_213_469)">
<path d="M274.618 131.913C229.738 122.884 185.871 152.047 176.843 196.928C175.676 202.731 175.146 208.518 175.209 214.221C182.423 226.598 186.564 240.788 186.842 255.603C198.426 275.136 217.909 289.885 241.869 294.705C286.75 303.734 330.607 274.557 339.635 229.676C348.664 184.796 319.499 140.941 274.618 131.913ZM302.554 210.584L275.497 253.312C272.426 258.157 266.015 259.598 261.181 256.53L218.454 229.473C213.609 226.402 212.167 219.991 215.236 215.157L242.292 172.43C245.363 167.585 251.775 166.143 256.608 169.212L299.336 196.268C304.181 199.339 305.622 205.751 302.554 210.584Z" fill="#5700FF"/>
<path d="M163.061 19.6714C118.181 10.6429 74.3145 39.8059 65.286 84.6864C56.2574 129.567 85.4228 173.422 130.303 182.45C175.184 191.479 219.039 162.313 228.067 117.433C237.096 72.5524 207.942 28.7 163.061 19.6714ZM180.599 129.843L131.668 142.617C126.129 144.066 120.46 140.745 119.013 135.195L106.239 86.2641C104.789 80.7254 108.11 75.0562 113.66 73.6091L162.591 60.8349C168.13 59.3854 173.799 62.7062 175.246 68.2564L188.02 117.188C189.47 122.726 186.149 128.395 180.599 129.843Z" fill="#00CC8D"/>
<path d="M186.842 255.603C179.534 243.279 175.374 229.061 175.209 214.221C163.296 193.699 142.997 178.187 117.966 173.152C71.5886 163.822 26.2541 193.971 16.9221 240.36C7.59013 286.749 37.7419 332.072 84.1192 341.402C130.497 350.731 175.843 320.584 185.172 274.207C186.43 267.955 186.976 261.728 186.842 255.603ZM144.582 253.259L119.246 297.027C116.379 301.985 110.036 303.68 105.067 300.812L61.2988 275.475C56.3408 272.609 54.6458 266.266 57.5121 261.308L82.8511 217.528C85.7173 212.57 92.0601 210.875 97.0181 213.742L140.798 239.081C145.756 241.947 147.451 248.29 144.582 253.259Z" fill="#FF0000"/>
<path d="M186.842 255.604C179.534 243.28 175.374 229.062 175.209 214.222C182.423 226.598 186.564 240.789 186.842 255.604Z" fill="#5700FF"/>
</g>
<defs>
<clipPath id="clip0_213_469">
<rect width="314.268" height="330.98" fill="white" transform="translate(65.2752) rotate(11.3743)"/>
</clipPath>
</defs>
</svg>
