<svg width="24" height="24" viewBox="0 0 24 24" fill="none" xmlns="http://www.w3.org/2000/svg">
<g clip-path="url(#clip0_226_645)">
<path d="M6.92531 22.3951C6.89031 22.3951 6.84365 22.4185 6.80865 22.4185C4.54531 21.2985 2.70198 19.4435 1.57031 17.1801C1.57031 17.1451 1.59365 17.0985 1.59365 17.0635C3.01698 17.4835 4.48698 17.7985 5.94531 18.0435C6.20198 19.5135 6.50531 20.9718 6.92531 22.3951Z" fill="#5700FF"/>
<path d="M22.4299 17.1918C21.2749 19.5135 19.3499 21.3918 17.0049 22.5235C17.4482 21.0418 17.8215 19.5485 18.0665 18.0435C19.5365 17.7985 20.9832 17.4835 22.4065 17.0635C22.3949 17.1101 22.4299 17.1568 22.4299 17.1918Z" fill="#5700FF"/>
<path d="M22.5232 6.9949C21.0532 6.55156 19.5715 6.1899 18.0665 5.93323C17.8215 4.42823 17.4599 2.9349 17.0049 1.47656C19.4199 2.63156 21.3682 4.5799 22.5232 6.9949Z" fill="#5700FF"/>
<path d="M6.9249 1.60531C6.5049 3.02865 6.20156 4.47531 5.95656 5.94531C4.45156 6.17865 2.95823 6.55198 1.47656 6.99531C2.60823 4.65031 4.48656 2.72531 6.80823 1.57031C6.84323 1.57031 6.8899 1.60531 6.9249 1.60531Z" fill="#5700FF"/>
<path d="M16.072 5.68801C13.3654 5.38467 10.6354 5.38467 7.92871 5.68801C8.22038 4.08967 8.59371 2.49134 9.11871 0.951341C9.14204 0.858008 9.13038 0.788008 9.14204 0.694674C10.0637 0.473008 11.0087 0.333008 12.0004 0.333008C12.9804 0.333008 13.937 0.473008 14.847 0.694674C14.8587 0.788008 14.8587 0.858008 14.882 0.951341C15.407 2.50301 15.7804 4.08967 16.072 5.68801Z" fill="#5700FF"/>
<path d="M5.68801 16.072C4.07801 15.7804 2.49134 15.407 0.951341 14.882C0.858008 14.8587 0.788008 14.8704 0.694674 14.8587C0.473008 13.937 0.333008 12.992 0.333008 12.0004C0.333008 11.0204 0.473008 10.0637 0.694674 9.15371C0.788008 9.14204 0.858008 9.14204 0.951341 9.11871C2.50301 8.60538 4.07801 8.22038 5.68801 7.92871C5.39634 10.6354 5.39634 13.3654 5.68801 16.072Z" fill="#5700FF"/>
<path d="M23.6665 12.0004C23.6665 12.992 23.5265 13.937 23.3049 14.8587C23.2115 14.8704 23.1415 14.8587 23.0482 14.882C21.4965 15.3954 19.9099 15.7804 18.3115 16.072C18.6149 13.3654 18.6149 10.6354 18.3115 7.92871C19.9099 8.22038 21.5082 8.59371 23.0482 9.11871C23.1415 9.14204 23.2115 9.15371 23.3049 9.15371C23.5265 10.0754 23.6665 11.0204 23.6665 12.0004Z" fill="#5700FF"/>
<path d="M16.072 18.3115C15.7804 19.9215 15.407 21.5082 14.882 23.0482C14.8587 23.1415 14.8587 23.2115 14.847 23.3049C13.937 23.5265 12.9804 23.6665 12.0004 23.6665C11.0087 23.6665 10.0637 23.5265 9.14204 23.3049C9.13038 23.2115 9.14204 23.1415 9.11871 23.0482C8.60538 21.4965 8.22038 19.9215 7.92871 18.3115C9.28204 18.4632 10.6354 18.5682 12.0004 18.5682C13.3654 18.5682 14.7304 18.4632 16.072 18.3115Z" fill="#5700FF"/>
<path d="M16.3902 16.3902C13.4723 16.7584 10.5271 16.7584 7.60912 16.3902C7.24097 13.4723 7.24097 10.5271 7.60912 7.60912C10.5271 7.24097 13.4723 7.24097 16.3902 7.60912C16.7584 10.5271 16.7584 13.4723 16.3902 16.3902Z" fill="#5700FF"/>
</g>
<defs>
<clipPath id="clip0_226_645">
<rect width="28" height="28" fill="white" transform="translate(-2 -2)"/>
</clipPath>
</defs>
</svg>
