<svg width="24" height="24" viewBox="0 0 24 24" fill="none" xmlns="http://www.w3.org/2000/svg">
<path fill-rule="evenodd" clip-rule="evenodd" d="M11.9727 -0.0625C6.94974 -0.0625 5.48072 -0.0573162 5.19517 -0.0336251C4.16438 0.0520814 3.52297 0.214427 2.82417 0.562428C2.28564 0.829924 1.86092 1.13998 1.44176 1.57463C0.678384 2.36727 0.21573 3.34244 0.0482458 4.50161C-0.0331772 5.06435 -0.0568685 5.17912 -0.0616795 8.05354C-0.0635257 9.01168 -0.0616795 10.2727 -0.0616795 11.964C-0.0616795 16.9843 -0.0561319 18.4522 -0.0320678 18.7373C0.0512104 19.7406 0.208508 20.3718 0.541621 21.0623C1.17824 22.384 2.39408 23.3762 3.82646 23.7464C4.32243 23.8741 4.87021 23.9445 5.57344 23.9778C5.87139 23.9907 8.90824 24 11.9469 24C14.9857 24 18.0244 23.9963 18.3149 23.9815C19.1292 23.9432 19.602 23.8797 20.1248 23.7445C21.5664 23.3725 22.7601 22.3951 23.4096 21.0549C23.7363 20.3811 23.9019 19.7258 23.9769 18.7748C23.9932 18.5675 24 15.262 24 11.9609C24 8.65922 23.9926 5.35979 23.9763 5.15246C23.9004 4.18618 23.7348 3.53644 23.3976 2.84967C23.121 2.28749 22.8138 1.86765 22.3678 1.43839C21.5718 0.677946 20.5984 0.215164 19.4384 0.0478253C18.8764 -0.0334431 18.7644 -0.0575071 15.8886 -0.0625H11.9727ZM8.28474 3.08136C9.23905 3.03796 9.54398 3.02734 11.9737 3.02734H11.9709C14.4014 3.02734 14.7052 3.03796 15.6596 3.08136C16.612 3.12494 17.2625 3.27561 17.8328 3.49669C18.4218 3.72485 18.9195 4.03029 19.4171 4.52758C19.9148 5.02449 20.2205 5.52327 20.4497 6.11127C20.6696 6.6797 20.8206 7.32933 20.8654 8.28107C20.9082 9.23467 20.9194 9.53936 20.9194 11.9673C20.9194 14.3953 20.9082 14.6992 20.8654 15.6528C20.8206 16.6042 20.6696 17.254 20.4497 17.8226C20.2205 18.4104 19.9148 18.9092 19.4171 19.4061C18.92 19.9034 18.4216 20.2096 17.8334 20.4379C17.2642 20.659 16.6133 20.8097 15.6609 20.8533C14.7065 20.8967 14.4025 20.9073 11.9726 20.9073C9.54304 20.9073 9.2383 20.8967 8.28399 20.8533C7.33174 20.8097 6.68142 20.659 6.1122 20.4379C5.52415 20.2096 5.02501 19.9034 4.5279 19.4061C4.03044 18.9092 3.72476 18.4104 3.49606 17.8224C3.27501 17.254 3.12422 16.6044 3.08042 15.6526C3.03718 14.699 3.02637 14.3953 3.02637 11.9673C3.02637 9.53937 3.03755 9.23448 3.08023 8.28088C3.1231 7.32952 3.27407 6.6797 3.49588 6.11108C3.72513 5.52327 4.03082 5.0245 4.52847 4.52758C5.02575 4.03048 5.5249 3.72504 6.11332 3.4967C6.68218 3.27561 7.3323 3.12494 8.28474 3.08136ZM11.1711 4.6384C9.50372 4.63803 9.18387 4.6492 8.35855 4.68645C7.48626 4.7265 7.01265 4.87177 6.69728 4.9947C6.27977 5.15711 5.98154 5.3508 5.66842 5.66371C5.35528 5.9766 5.16106 6.2746 4.99891 6.6918C4.87645 7.00694 4.7307 7.48001 4.69081 8.35166C4.64794 9.29407 4.63937 9.57569 4.63937 11.963C4.63937 14.3504 4.64794 14.6335 4.69081 15.5759C4.73051 16.4475 4.87645 16.9206 4.99891 17.2354C5.16144 17.6528 5.35528 17.95 5.66842 18.2629C5.98154 18.5758 6.27977 18.7695 6.69728 18.9316C7.01284 19.0539 7.48626 19.1996 8.35855 19.2398C9.30167 19.2826 9.58479 19.2919 11.9737 19.2919C14.3625 19.2919 14.6458 19.2826 15.5889 19.2398C16.4612 19.1999 16.935 19.0547 17.25 18.9317C17.6677 18.7697 17.965 18.576 18.2781 18.2631C18.5912 17.9504 18.7855 17.6533 18.9476 17.2361C19.0701 16.9214 19.2158 16.4483 19.2557 15.5766C19.2986 14.6342 19.3079 14.3511 19.3079 11.9653C19.3079 9.57941 19.2986 9.29631 19.2557 8.35389C19.216 7.48224 19.0701 7.00917 18.9476 6.69441C18.7851 6.27721 18.5912 5.97921 18.2781 5.66631C17.9652 5.35341 17.6675 5.15971 17.25 4.99767C16.9346 4.87531 16.4612 4.72967 15.5889 4.68981C14.6456 4.64697 14.3625 4.6384 11.9737 4.6384C11.6751 4.6384 11.4093 4.63803 11.1711 4.6384ZM16.7494 6.12281C16.1566 6.12281 15.6758 6.60278 15.6758 7.19523C15.6758 7.78751 16.1566 8.26803 16.7494 8.26803C17.3421 8.26803 17.823 7.78751 17.823 7.19523C17.823 6.60296 17.3421 6.12244 16.7494 6.12244L16.7494 6.12281ZM11.9737 7.37626C9.43643 7.37626 7.37927 9.4319 7.37927 11.9673C7.37927 14.5027 9.43643 16.5574 11.9737 16.5574C14.511 16.5574 16.5674 14.5027 16.5674 11.9673C16.5674 9.4319 14.5108 7.37626 11.9735 7.37626H11.9737ZM11.9737 8.98733C13.6206 8.98733 14.9559 10.3214 14.9559 11.9673C14.9559 13.613 13.6206 14.9473 11.9737 14.9473C10.3266 14.9473 8.99152 13.613 8.99152 11.9673C8.99152 10.3214 10.3266 8.98733 11.9737 8.98733Z" fill="#5700FF"/>
</svg>
