<svg width="24" height="24" viewBox="0 0 24 24" fill="none" xmlns="http://www.w3.org/2000/svg">
<path d="M20.4491 20.4496H16.8931V14.8805C16.8931 13.5525 16.8694 11.8429 15.0436 11.8429C13.1915 11.8429 12.9081 13.2899 12.9081 14.7838V20.4492H9.35203V8.99689H12.7658V10.562H12.8136C13.1553 9.97782 13.649 9.49726 14.2421 9.17149C14.8352 8.84572 15.5056 8.68693 16.1819 8.71203C19.7861 8.71203 20.4506 11.0828 20.4506 14.167L20.4491 20.4496ZM5.33963 7.43144C4.93148 7.43151 4.53247 7.31055 4.19307 7.08385C3.85367 6.85715 3.58913 6.53489 3.43287 6.15783C3.27661 5.78077 3.23566 5.36584 3.31521 4.96551C3.39477 4.56517 3.59125 4.19743 3.8798 3.90876C4.16835 3.6201 4.53602 3.42348 4.93631 3.34378C5.3366 3.26408 5.75152 3.30488 6.12863 3.46101C6.50573 3.61713 6.82807 3.88158 7.05489 4.22091C7.2817 4.56025 7.40281 4.95922 7.40288 5.36738C7.40293 5.63839 7.34959 5.90675 7.24593 6.15715C7.14227 6.40754 6.99032 6.63507 6.79873 6.82674C6.60714 7.0184 6.37966 7.17045 6.1293 7.27421C5.87895 7.37796 5.61062 7.43139 5.33963 7.43144ZM7.11765 20.4496H3.5579V8.99689H7.11765V20.4496ZM22.222 0.00163516H1.77099C1.30681 -0.00360329 0.859518 0.175663 0.52744 0.500042C0.195362 0.824421 0.00566506 1.26737 0 1.73156V22.2681C0.00547117 22.7325 0.195057 23.1758 0.527123 23.5005C0.85919 23.8252 1.30658 24.0048 1.77099 23.9999H22.222C22.6873 24.0057 23.1359 23.8266 23.4693 23.5019C23.8027 23.1772 23.9936 22.7334 24 22.2681V1.73008C23.9934 1.26497 23.8024 0.821515 23.469 0.497144C23.1356 0.172773 22.6871 -0.00598143 22.222 0.000152822" fill="#5700FF"/>
</svg>
