<svg width="49" height="52" viewBox="0 0 49 52" fill="none" xmlns="http://www.w3.org/2000/svg">
<path d="M36.0157 13.71C28.8859 13.71 23.084 19.51 23.084 26.6399C23.084 27.5617 23.1809 28.4617 23.3657 29.3305C24.8472 30.9986 25.9154 33.0381 26.4129 35.2915C28.7816 37.9181 32.2094 39.5716 36.0157 39.5716C43.1455 39.5716 48.9456 33.7697 48.9456 26.6399C48.9456 19.51 43.1455 13.71 36.0157 13.71ZM42.6974 24.8638L39.8788 32.2186C39.5587 33.0527 38.624 33.4697 37.7918 33.1496L30.437 30.331C29.6029 30.0109 29.1859 29.0762 29.506 28.244L32.3246 20.8892C32.6447 20.0551 33.5794 19.6381 34.4116 19.9582L41.7664 22.7768C42.6005 23.0969 43.0175 24.0316 42.6974 24.8638Z" fill="#5700FF"/>
<path d="M15.5353 0C8.40542 0 2.60352 5.80008 2.60352 12.9299C2.60352 20.0597 8.40359 25.8598 15.5334 25.8598C22.6633 25.8598 28.4633 20.0597 28.4633 12.9299C28.4633 5.80008 22.6651 0 15.5353 0ZM21.5969 16.2826L14.5183 19.736C13.7171 20.1274 12.7495 19.7945 12.3581 18.9915L8.90476 11.9129C8.51334 11.1118 8.84623 10.1442 9.64921 9.75276L16.7278 6.29942C17.529 5.90799 18.4966 6.24089 18.888 7.04386L22.3413 14.1225C22.7328 14.9236 22.3999 15.8912 21.5969 16.2826Z" fill="#00CC8D"/>
<path d="M26.4122 35.2928C24.9178 33.6356 23.846 31.5925 23.3649 29.3317C20.9158 26.5643 17.3399 24.8193 13.3634 24.8193C5.99579 24.8193 0 30.8151 0 38.1846C0 45.554 5.99579 51.548 13.3634 51.548C20.731 51.548 26.7286 45.5522 26.7286 38.1846C26.7286 37.1914 26.6207 36.2238 26.4122 35.2928ZM19.8878 36.2329L17.3636 43.6938C17.0783 44.5389 16.1619 44.9925 15.3151 44.7071L7.85416 42.183C7.00911 41.8976 6.55549 40.9813 6.84083 40.1362L9.36499 32.6735C9.65033 31.8284 10.5667 31.3748 11.4118 31.6602L18.8745 34.1843C19.7195 34.4697 20.1731 35.386 19.8878 36.2329Z" fill="#FF0000"/>
<path d="M26.4129 35.2915C24.9186 33.6343 23.8467 31.5912 23.3657 29.3305C24.8472 30.9986 25.9154 33.0381 26.4129 35.2915Z" fill="#5700FF"/>
</svg>
